<svg xmlns="http://www.w3.org/2000/svg" viewBox="0 0 30 30"><defs><style>.cls-1{fill:#eee;}.cls-2{fill:#bcbcbc;}</style></defs><title>avatarka</title><g id="Layer_2" data-name="Layer 2"><g id="Layer_1-2" data-name="Layer 1"><path class="cls-1" d="M4.51,24.44a12.28,12.28,0,0,1,0-2c0-.21.07-.42.12-.62a2,2,0,0,1,1.05-1.22,7.17,7.17,0,0,1,1.33-.54l3.18-1a4.7,4.7,0,0,0,1.43-.82,1.69,1.69,0,0,0,.64-1.62c0-.19,0-.38-.07-.56a1,1,0,0,0-.32-.56,4.48,4.48,0,0,0-.41-.36,2,2,0,0,1-.71-1q-.15-.4-.28-.81a.23.23,0,0,0-.14-.16,1.38,1.38,0,0,1-.72-.85,1.86,1.86,0,0,1,.22-1.79.3.3,0,0,0,0-.17,9.77,9.77,0,0,1,.53-3.43,4.57,4.57,0,0,1,3.64-3.06c.25,0,.51-.07.76-.1h.29c.25,0,.51.05.76.1a4.57,4.57,0,0,1,3.64,3.06,9.77,9.77,0,0,1,.53,3.43.3.3,0,0,0,0,.17,1.86,1.86,0,0,1,.22,1.79,1.38,1.38,0,0,1-.72.85.23.23,0,0,0-.14.16q-.13.41-.28.81a2,2,0,0,1-.71,1,4.48,4.48,0,0,0-.41.36,1,1,0,0,0-.32.56c0,.19,0,.38-.07.56a1.69,1.69,0,0,0,.64,1.62,4.7,4.7,0,0,0,1.43.82l3.18,1a7.17,7.17,0,0,1,1.33.54,2,2,0,0,1,1.05,1.22c.05.2.08.41.12.62a23.62,23.62,0,0,1,.13,3.19,15,15,0,1,0-21,.12A12.52,12.52,0,0,1,4.51,24.44Z"/><path class="cls-2" d="M25.57,25.64a23.62,23.62,0,0,0-.13-3.19c0-.21-.07-.42-.12-.62a2,2,0,0,0-1.05-1.22,7.17,7.17,0,0,0-1.33-.54l-3.18-1a4.7,4.7,0,0,1-1.43-.82,1.69,1.69,0,0,1-.64-1.62c0-.19,0-.38.07-.56a1,1,0,0,1,.32-.56,4.48,4.48,0,0,1,.41-.36,2,2,0,0,0,.71-1q.15-.4.28-.81a.23.23,0,0,1,.14-.16,1.38,1.38,0,0,0,.72-.85,1.86,1.86,0,0,0-.22-1.79.3.3,0,0,1,0-.17,9.77,9.77,0,0,0-.53-3.43,4.57,4.57,0,0,0-3.64-3.06c-.25,0-.51-.07-.76-.1h-.29c-.25,0-.51.05-.76.1a4.57,4.57,0,0,0-3.64,3.06,9.77,9.77,0,0,0-.53,3.43.3.3,0,0,1,0,.17,1.86,1.86,0,0,0-.22,1.79,1.38,1.38,0,0,0,.72.85.23.23,0,0,1,.14.16q.13.41.28.81a2,2,0,0,0,.71,1,4.48,4.48,0,0,1,.41.36,1,1,0,0,1,.32.56c0,.19,0,.38.07.56a1.69,1.69,0,0,1-.64,1.62,4.7,4.7,0,0,1-1.43.82l-3.18,1a7.17,7.17,0,0,0-1.33.54,2,2,0,0,0-1.05,1.22c-.05.2-.08.41-.12.62a12.28,12.28,0,0,0,0,2,12.52,12.52,0,0,0,0,1.32,15,15,0,0,0,21-.12Z"/></g></g></svg>